<svg width="1880" height="679" viewBox="0 0 1880 679" fill="none" xmlns="http://www.w3.org/2000/svg">
<path d="M966.514 343.876C970.6 327.173 979.291 312.873 989.424 308.146C999.557 303.42 1010.81 309.348 1015.94 323.648C1018.98 332.099 1019.78 342.514 1020.54 352.608" fill="white"/>
<path d="M967.836 344.236C970.119 335.144 973.644 326.131 979.331 318.641C983.577 313.033 989.785 307.505 997.274 307.906C1005.16 308.347 1010.85 315.076 1013.82 321.845C1017.98 331.378 1018.42 342.354 1019.18 352.568C1019.3 354.29 1022.03 354.33 1021.91 352.568C1020.83 337.827 1020.3 318.08 1006.89 308.587C1002.12 305.222 996.073 304.181 990.546 306.183C984.698 308.266 980.092 312.913 976.487 317.84C970.96 325.41 967.436 334.423 965.153 343.475C964.712 345.158 967.355 345.879 967.756 344.196L967.836 344.236Z" fill="white"/>
<path d="M966.515 344.236C970.159 351.046 975.687 356.934 981.054 359.377C983.537 360.499 986.18 361.099 988.784 361.38C999.277 362.622 1010.21 359.617 1020.38 352.608" fill="white"/>
<path d="M965.313 344.917C967.916 349.684 971.281 354.13 975.566 357.535C979.852 360.939 984.418 362.341 989.625 362.822C1000.88 363.903 1011.81 359.978 1021.07 353.769C1022.51 352.808 1021.15 350.445 1019.7 351.446C1011.33 357.134 1001.6 360.819 991.347 360.258C986.02 359.978 981.013 358.536 976.888 355.131C973.043 351.967 970.079 347.921 967.676 343.595C966.835 342.073 964.512 343.435 965.353 344.957L965.313 344.917Z" fill="white"/>
<path d="M967.836 343.155C978.37 346.519 989.304 347.401 1000.16 348.242C1003.32 348.482 1006.49 348.722 1009.65 349.003" fill="white"/>
<path d="M967.476 344.477C981.093 348.762 995.552 349.243 1009.65 350.365C1011.37 350.485 1011.37 347.801 1009.65 347.641C995.753 346.559 981.574 346.079 968.197 341.873C966.515 341.352 965.834 343.956 967.476 344.477Z" fill="white"/>
<path d="M1004.6 351.366L1015.26 352.287Z" fill="white"/>
<path d="M1004.6 352.688L1015.26 353.609C1015.98 353.689 1016.62 352.928 1016.62 352.247C1016.62 351.446 1015.98 350.965 1015.26 350.885L1004.6 349.964C1003.88 349.884 1003.24 350.645 1003.24 351.326C1003.24 352.127 1003.88 352.608 1004.6 352.688Z" fill="white"/>
<path d="M988.864 348.482C973.123 435.363 964.672 524.646 963.791 613.089C963.711 622.662 963.751 632.636 966.354 640.888C968.958 649.139 974.926 655.148 980.773 652.224C973.844 630.634 974.325 604.197 975.446 578.962C979.051 496.968 987.582 414.814 1000.88 334.062" fill="white"/>
<path d="M986.941 347.962C971.161 435.403 962.59 524.246 961.789 613.129C961.708 623.464 961.348 634.759 965.553 644.453C968.197 650.581 974.004 657.15 981.294 654.226C982.255 653.826 983.016 652.904 982.696 651.783C976.888 633.117 976.448 613.29 976.928 593.903C977.409 573.194 978.691 552.485 980.092 531.817C982.896 489.838 986.981 447.94 992.348 406.202C995.432 382.289 998.917 358.456 1002.84 334.703C1003.24 332.18 999.438 331.098 998.997 333.662C985.179 417.818 975.967 503.097 973.123 588.375C972.402 609.925 972.442 632.116 978.891 652.904L980.293 650.461C970.28 654.467 966.995 636.682 966.314 630.273C965.313 620.78 965.834 611.046 965.994 601.513C966.354 580.965 967.115 560.456 968.277 539.948C970.6 499.291 974.445 458.675 979.892 418.299C983.016 395.147 986.661 372.115 990.826 349.123C991.267 346.6 987.462 345.558 986.981 348.082L986.941 347.962Z" fill="white"/>
<path d="M1014.42 401.075C995.432 440.049 980.332 481.347 969.719 523.445C968.557 528.011 967.436 532.778 967.996 537.144C968.557 541.51 971.281 545.315 975.005 544.875C973.483 533.459 976.808 520.921 980.332 509.025C991.787 470.451 1006.13 432.559 1023.03 396.148" fill="white"/>
<path d="M1013.5 400.554C1000.84 426.631 989.905 453.548 980.853 481.106C976.327 494.965 972.202 509.025 968.677 523.164C967.035 529.734 963.831 545.916 975.005 545.956C975.526 545.956 976.167 545.475 976.087 544.875C974.645 531.776 978.45 518.999 982.175 506.622C985.899 494.244 989.905 481.987 994.19 469.81C1002.92 444.976 1012.89 420.582 1023.95 396.669C1024.51 395.427 1022.67 394.306 1022.11 395.588C1010.97 419.661 1000.96 444.215 992.148 469.21C987.742 481.667 983.657 494.244 979.852 506.902C976.047 519.559 972.522 531.897 973.964 544.835L975.045 543.753C962.109 543.753 973.844 512.029 975.606 505.74C978.93 494.084 982.575 482.508 986.54 471.052C994.751 447.339 1004.4 424.187 1015.38 401.636C1015.98 400.394 1014.14 399.313 1013.54 400.554H1013.5Z" fill="white"/>
<path d="M1003.28 395.948C1005.49 387.056 1010.13 379.445 1015.54 376.922C1020.99 374.398 1026.99 377.563 1029.76 385.173C1031.4 389.659 1031.84 395.227 1032.24 400.594" fill="white"/>
<path d="M1003.96 396.148C1005.16 391.382 1007.05 386.615 1010.01 382.65C1012.29 379.605 1015.66 376.601 1019.74 376.801C1023.83 377.002 1027.03 380.607 1028.6 384.252C1030.84 389.339 1031.08 395.147 1031.48 400.594C1031.56 401.516 1033 401.516 1032.92 400.594C1032.32 392.704 1032.04 382.049 1024.71 377.082C1018.7 372.996 1012.37 376.962 1008.61 382.089C1005.65 386.134 1003.76 390.901 1002.52 395.748C1002.28 396.669 1003.68 397.03 1003.92 396.148H1003.96Z" fill="white"/>
<path d="M1003.28 396.148C1005.24 399.793 1008.21 402.917 1011.09 404.199C1012.41 404.8 1013.82 405.121 1015.26 405.281C1020.87 405.962 1026.71 404.36 1032.2 400.634" fill="white"/>
<path d="M1002.64 396.509C1004.04 399.032 1005.85 401.436 1008.13 403.238C1010.41 405.041 1012.89 405.802 1015.66 406.082C1021.67 406.683 1027.55 404.6 1032.48 401.275C1033.24 400.755 1032.52 399.513 1031.76 400.034C1027.27 403.038 1022.07 405 1016.58 404.72C1013.74 404.56 1011.05 403.799 1008.81 401.996C1006.77 400.314 1005.16 398.151 1003.88 395.828C1003.44 395.027 1002.2 395.748 1002.64 396.549V396.509Z" fill="white"/>
<path d="M1003.96 395.587C1009.61 397.39 1015.46 397.83 1021.27 398.311C1022.95 398.431 1024.67 398.592 1026.35 398.712" fill="white"/>
<path d="M1003.76 396.268C1011.05 398.552 1018.82 398.832 1026.39 399.393C1027.31 399.473 1027.31 398.031 1026.39 397.951C1018.94 397.35 1011.33 397.11 1004.16 394.866C1003.28 394.586 1002.88 395.988 1003.76 396.268Z" fill="white"/>
<path d="M1023.71 399.954L1029.44 400.474Z" fill="white"/>
<path d="M1023.71 400.675L1029.44 401.195C1029.84 401.195 1030.16 400.835 1030.16 400.474C1030.16 400.074 1029.84 399.793 1029.44 399.753L1023.71 399.233C1023.31 399.233 1022.99 399.593 1022.99 399.954C1022.99 400.354 1023.31 400.635 1023.71 400.675Z" fill="white"/>
<path d="M958.184 392.744C956.061 436.044 958.464 479.945 965.313 522.844C966.034 527.491 966.915 532.297 969.118 536.103C971.321 539.908 975.366 542.311 978.57 540.429C972.682 530.535 970.76 517.677 969.358 505.38C964.672 465.405 962.91 424.948 964.111 384.813" fill="white"/>
<path d="M957.102 392.744C955.7 422.585 956.341 452.507 959.105 482.268C960.426 496.488 962.069 510.787 964.552 524.887C965.713 531.536 969.518 545.476 979.131 541.39C979.651 541.15 979.772 540.388 979.531 539.908C973.564 529.413 971.841 517.236 970.44 505.42C968.877 491.961 967.636 478.503 966.715 464.964C964.912 438.287 964.432 411.53 965.193 384.813C965.193 383.411 963.07 383.411 963.03 384.813C962.229 412.852 962.83 440.93 964.832 468.889C965.834 482.468 967.035 496.087 968.797 509.586C970.199 520.441 972.202 531.336 977.649 540.949L978.049 539.467C975.406 540.589 972.282 538.466 970.84 536.543C969.558 534.861 968.837 533.178 968.197 531.136C967.396 528.612 966.955 526.009 966.514 523.405C965.433 516.796 964.512 510.187 963.631 503.537C962.069 491.28 960.867 478.983 960.026 466.686C958.344 442.052 958.103 417.378 959.265 392.704C959.345 391.302 957.182 391.302 957.102 392.704V392.744Z" fill="white"/>
<path d="M945.086 389.659C947.289 380.767 951.895 373.156 957.342 370.633C962.789 368.109 968.797 371.274 971.521 378.884C973.163 383.371 973.563 388.938 974.004 394.306" fill="white"/>
<path d="M945.807 389.819C947.009 385.093 948.811 380.446 951.695 376.521C953.938 373.437 957.302 370.353 961.388 370.473C965.473 370.593 968.677 374.118 970.279 377.683C972.602 382.81 972.842 388.738 973.243 394.226C973.323 395.147 974.765 395.147 974.685 394.226C974.084 386.335 973.804 375.68 966.514 370.713C960.426 366.547 954.018 370.713 950.293 375.92C947.409 379.926 945.567 384.652 944.365 389.379C944.125 390.3 945.527 390.661 945.767 389.779L945.807 389.819Z" fill="white"/>
<path d="M945.086 389.82C947.049 393.465 950.013 396.589 952.857 397.871C954.178 398.472 955.58 398.792 956.982 398.952C962.589 399.633 968.437 397.991 973.884 394.266" fill="white"/>
<path d="M944.446 390.18C945.847 392.703 947.65 395.107 949.933 396.909C952.216 398.712 954.659 399.473 957.423 399.713C963.43 400.314 969.278 398.231 974.204 394.907C974.965 394.386 974.244 393.144 973.483 393.665C968.998 396.669 963.791 398.632 958.344 398.351C955.5 398.191 952.817 397.43 950.614 395.628C948.571 393.945 946.969 391.782 945.687 389.499C945.247 388.698 944.005 389.419 944.446 390.22V390.18Z" fill="white"/>
<path d="M945.767 389.259C951.415 391.061 957.222 391.502 963.03 391.983C964.712 392.103 966.434 392.263 968.116 392.383" fill="white"/>
<path d="M945.607 389.94C952.897 392.223 960.627 392.503 968.156 393.064C969.078 393.144 969.078 391.702 968.156 391.622C960.747 391.021 953.137 390.781 945.968 388.538C945.086 388.257 944.686 389.659 945.567 389.94H945.607Z" fill="white"/>
<path d="M965.473 393.625L971.16 394.105Z" fill="white"/>
<path d="M965.473 394.346L971.16 394.826C971.561 394.826 971.881 394.466 971.881 394.105C971.881 393.705 971.561 393.425 971.16 393.384L965.473 392.904C965.072 392.904 964.752 393.264 964.752 393.625C964.752 394.025 965.072 394.306 965.473 394.346Z" fill="white"/>
<path d="M1017.26 466.766C996.554 504.859 979.652 545.435 967.195 587.053C965.834 591.579 964.512 596.266 964.872 600.672C965.233 605.078 967.796 608.963 971.521 608.683C970.52 597.187 974.365 584.81 978.41 573.114C991.547 535.061 1007.53 497.889 1026.03 462.24" fill="white"/>
<path d="M1016.34 466.205C1002.52 491.721 990.426 518.118 980.172 545.235C975.006 558.894 970.28 572.713 966.154 586.733C964.232 593.262 960.347 609.204 971.521 609.724C972.082 609.724 972.643 609.204 972.603 608.643C971.721 595.505 976.127 582.887 980.413 570.67C984.698 558.453 989.224 546.397 994.03 534.46C1003.88 510.026 1014.9 486.113 1026.99 462.721C1027.63 461.479 1025.75 460.397 1025.15 461.639C1012.98 485.192 1001.88 509.305 991.988 533.899C987.061 546.156 982.415 558.533 978.05 571.031C973.684 583.528 969.639 595.665 970.48 608.683L971.561 607.602C958.664 607.001 971.882 575.597 973.884 569.589C977.729 558.093 981.855 546.677 986.34 535.421C995.593 512.109 1006.29 489.398 1018.22 467.327C1018.86 466.125 1017.02 465.004 1016.38 466.246L1016.34 466.205Z" fill="white"/>
<path d="M1005.53 463.482C1009.77 455.391 1016.18 449.102 1022.19 447.98C1028.19 446.859 1033.44 451.425 1034.4 459.476C1034.96 464.243 1034.12 469.73 1033.24 475.058" fill="white"/>
<path d="M1006.17 463.842C1008.49 459.476 1011.45 455.311 1015.34 452.226C1018.38 449.783 1022.43 447.74 1026.39 448.942C1030.36 450.143 1032.52 453.949 1033.4 457.754C1034.64 463.362 1033.48 469.37 1032.6 474.938C1032.44 475.859 1033.88 476.26 1034 475.338C1035.28 467.447 1037.45 456.993 1031.36 450.424C1026.35 445.056 1019.18 447.259 1014.18 451.345C1010.29 454.549 1007.29 458.715 1004.92 463.161C1004.48 464.002 1005.77 464.723 1006.21 463.882L1006.17 463.842Z" fill="white"/>
<path d="M1005.49 463.642C1006.57 467.648 1008.81 471.413 1011.37 473.376C1012.57 474.297 1013.9 474.938 1015.26 475.418C1020.71 477.461 1026.91 477.301 1033.2 475.018" fill="white"/>
<path d="M1004.76 463.842C1006.33 469.37 1009.49 474.097 1015.02 476.139C1020.95 478.343 1027.47 477.822 1033.36 475.739C1034.24 475.418 1033.88 474.016 1032.96 474.337C1027.59 476.22 1021.79 476.82 1016.3 475.058C1013.82 474.257 1011.57 472.975 1009.89 470.932C1008.13 468.769 1006.93 466.126 1006.17 463.442C1005.93 462.521 1004.48 462.921 1004.76 463.842Z" fill="white"/>
<path d="M1006.33 463.242C1011.53 466.366 1017.26 468.249 1022.95 470.131C1024.59 470.692 1026.27 471.213 1027.91 471.773" fill="white"/>
<path d="M1005.93 463.882C1012.65 467.888 1020.3 470.051 1027.67 472.454C1028.56 472.735 1028.96 471.333 1028.07 471.052C1020.79 468.649 1013.3 466.566 1006.65 462.601C1005.85 462.12 1005.08 463.402 1005.93 463.882Z" fill="white"/>
<path d="M1024.91 472.334L1030.48 474.217Z" fill="white"/>
<path d="M1024.71 473.055L1030.28 474.938C1030.64 475.058 1031.08 474.778 1031.2 474.417C1031.32 474.016 1031.08 473.656 1030.68 473.496L1025.11 471.613C1024.75 471.493 1024.31 471.773 1024.19 472.134C1024.07 472.534 1024.31 472.895 1024.71 473.055Z" fill="white"/>
<path d="M351.355 564.302C351.355 570.59 346.508 581.686 336.776 597.668C327.043 613.65 317.19 626.668 307.177 636.682C280.222 664.24 244.215 678.019 199.117 678.019C142.723 678.019 95.5819 657.671 57.6927 616.935C19.8034 576.238 0.858765 525.768 0.858765 465.645C0.858765 405.521 18.8422 350.685 54.889 308.707C90.8959 266.729 135.834 245.74 189.704 245.74C234.162 245.74 271.451 258.758 301.53 284.754C331.609 310.75 347.59 344.116 349.432 384.813C329.366 387.937 302.771 389.219 269.568 388.578H203.803C199.397 388.578 161.828 389.499 91.0561 391.382C87.932 412.01 86.37 431.638 86.37 450.384C86.37 513.431 98.4256 561.938 122.537 595.986C146.648 629.993 180.613 647.016 224.47 647.016C249.502 647.016 269.568 641.368 284.588 630.113C299.607 618.857 315.908 597.227 333.451 565.263C335.934 560.256 339.379 557.733 343.785 557.733C348.791 557.733 351.315 559.936 351.315 564.302H351.355ZM269.608 372.596C267.085 297.411 240.17 259.839 188.783 259.839C137.396 259.839 106.396 297.411 93.8998 372.596H269.608Z" fill="white"/>
<path d="M812.674 661.597C812.674 666.283 807.988 668.606 798.576 668.606H625.711C617.581 668.606 613.495 666.403 613.495 662.037C613.495 658.913 615.218 657.03 618.662 656.429C622.107 655.829 634.162 655.188 654.829 654.547C666.725 653.946 673.614 652.224 675.496 649.38C677.379 646.576 678.3 636.402 678.3 618.897V438.888C678.3 370.753 675.776 330.137 670.77 317.039C660.116 288.92 638.808 274.86 606.887 274.86C574.965 274.86 549.252 288.599 527.944 316.117C521.656 324.249 518.532 335.504 518.532 349.884V642.37C518.532 649.86 525.221 653.946 538.598 654.547L567.235 655.468C573.604 655.468 576.768 657.671 576.768 662.037C576.768 666.403 573.003 668.606 565.473 668.606H394.451C385.038 668.606 380.352 666.684 380.352 662.838C380.352 658.993 386 656.55 397.254 655.428H420.725C430.137 655.428 435.744 653.225 437.627 648.859L440.43 634.799V430.516C440.43 359.297 439.79 319.923 438.548 312.432C437.306 304.942 429.456 301.177 415.077 301.177H387.842C375.306 301.177 369.058 298.853 369.058 294.207C369.058 288.199 375.626 285.235 388.803 285.235C407.588 284.634 427.934 281.149 449.883 274.9C471.791 268.652 487.131 261.442 495.943 253.27C501.59 248.263 505.956 245.74 509.08 245.74C513.445 245.74 515.648 251.708 515.648 263.604V308.707C548.211 266.729 590.185 245.74 641.572 245.74C686.671 245.74 719.233 262.363 739.299 295.529C750.594 314.315 756.201 350.044 756.201 402.637V616.895C756.201 636.962 757.122 647.898 759.005 649.78C762.77 653.545 771.821 655.428 786.24 655.428H803.142C809.39 655.428 812.554 657.471 812.554 661.556L812.674 661.597Z" fill="white"/>
<path d="M1220.48 463.762C1220.48 524.526 1201.98 575.437 1165.05 616.454C1128.08 657.511 1082.06 678.019 1026.91 678.019C971.761 678.019 922.297 657.511 884.087 616.454C845.878 575.437 826.773 524.526 826.773 463.762C826.773 402.998 845.397 349.123 882.686 307.786C919.934 266.448 966.475 245.78 1022.23 245.78C1077.98 245.78 1125.72 266.609 1163.65 308.266C1201.54 349.924 1220.48 401.756 1220.48 463.762ZM1134.97 462.801C1134.97 393.905 1124.32 340.351 1103.01 302.098C1087.35 273.899 1061.04 259.799 1024.07 259.799C987.101 259.799 961.588 277.824 941.843 313.834C922.097 349.884 912.244 399.833 912.244 463.722C912.244 527.611 922.738 576.318 943.725 611.727C964.712 647.136 993.99 664.801 1031.6 664.801C1060.4 664.801 1081.7 653.866 1095.48 631.915C1121.8 590.578 1134.93 534.18 1134.93 462.761L1134.97 462.801Z" fill="white"/>
<path d="M1689.33 660.114C1689.33 664.521 1677.72 666.724 1654.57 666.724C1636.39 666.724 1619.48 666.403 1603.82 665.802C1571.86 664.561 1549.95 663.92 1538.06 663.92C1529.93 663.92 1517.55 664.4 1500.93 665.322C1484.31 666.243 1471.93 666.724 1463.8 666.724C1458.15 666.724 1455.35 664.561 1455.35 660.195C1455.35 655.188 1461.28 652.704 1473.21 652.704C1503.29 652.704 1518.31 647.737 1518.31 637.763C1518.31 629.031 1465.68 566.024 1360.47 448.741V639.566C1361.11 648.939 1370 653.305 1387.14 652.664H1412.89C1421.15 652.664 1425.27 654.867 1425.27 659.313C1425.27 664.28 1418.38 666.764 1404.6 666.764C1405.85 666.764 1404.28 666.764 1399.92 666.764H1242.99C1227.97 666.764 1220.44 664.12 1220.44 658.793C1220.44 655.468 1221.85 653.465 1224.69 652.784C1227.49 652.143 1238.31 651.462 1257.09 650.781C1272.11 650.181 1279.96 646.736 1280.6 640.447C1281.84 636.081 1282.49 619.819 1282.49 591.66V132.863C1282.49 83.4747 1282.16 57.799 1281.56 55.9164C1280.32 51.5504 1271.23 49.3473 1254.33 49.3473H1229.9C1223.01 49.3473 1219.56 46.9841 1219.56 42.2976C1219.56 37.6111 1226.77 35.2478 1241.19 35.2478C1271.27 34.647 1302.59 25.5544 1335.15 8.01003C1342.68 3.64397 1347.69 1.44092 1350.17 1.44092C1357.06 1.44092 1360.51 27.437 1360.51 79.4291V426.19C1462 335.905 1512.7 286.076 1512.7 276.743C1512.7 273.018 1500.49 271.135 1476.06 271.135H1446.94C1435.64 271.135 1430.04 268.651 1430.04 263.604C1430.04 257.957 1439.73 255.153 1459.16 255.153H1590.69C1613.24 255.153 1626.37 255.473 1630.14 256.074C1633.9 256.715 1635.78 258.918 1635.78 262.683C1635.78 267.089 1621.05 269.613 1591.61 270.214C1570.3 270.855 1557.44 272.417 1553.08 274.94C1545.55 279.346 1538.34 284.994 1531.45 291.884L1414.02 405.842C1501.09 501.294 1562.77 571.311 1599.14 615.853C1614.16 634.078 1626.05 645.054 1634.82 648.819C1641.71 651.943 1657.05 653.225 1680.88 652.584C1686.53 652.584 1689.33 655.108 1689.33 660.114Z" fill="white"/>
<path d="M1766.35 218.101C1794.55 218.101 1808.65 204.002 1808.65 175.803C1808.65 147.603 1794.55 133.504 1766.35 133.504C1738.16 133.504 1724.06 148.244 1724.06 177.685C1724.06 188.941 1728.14 198.514 1736.28 206.365C1744.41 214.216 1754.42 218.101 1766.35 218.101Z" fill="white" stroke="white"/>
<path d="M1865.96 653.545C1847.78 653.545 1834 652.303 1824.63 649.82C1818.98 648.578 1815.7 645.774 1814.78 641.368C1813.86 637.002 1813.38 622.302 1813.38 597.307V295.408C1813.38 270.414 1810.89 253.23 1805.97 243.857L1796.67 249.345C1767 267.049 1731.47 276.783 1690.06 278.625C1679.56 279.186 1674.31 281.389 1674.31 285.194C1674.31 289.6 1677.76 291.763 1684.65 291.763H1721.3C1728.19 291.763 1732.11 293.165 1733.03 296.009C1733.95 298.813 1734.75 308.066 1735.39 323.728V608.443C1735.39 631.635 1734.27 644.613 1732.11 647.457C1729.91 650.261 1716.93 652.023 1693.1 652.624C1680.56 652.624 1674.31 655.948 1674.31 662.558C1674.31 663.92 1674.64 665.041 1675.2 665.962C1675.32 665.962 1675.44 665.922 1675.6 665.962C1679.44 665.962 1683.25 666.483 1687.09 666.243C1689.01 666.123 1690.9 665.882 1692.82 665.802C1693.78 665.802 1694.78 665.802 1695.74 665.882C1695.78 665.842 1695.86 665.802 1695.9 665.762H1793.63C1806.17 665.762 1821.83 666.403 1840.61 667.645C1856.27 668.887 1863.76 669.527 1863.16 669.527C1873.81 669.527 1879.14 666.723 1879.14 661.076C1879.14 656.069 1874.74 653.545 1866 653.545H1865.96Z" fill="white"/>
</svg>
