<svg width="58" height="170" viewBox="0 0 58 170" fill="none" xmlns="http://www.w3.org/2000/svg">
<g clip-path="url(#clip0_115_1160)">
<path d="M32.0186 15.707C30.1212 9.03075 25.9239 3.34812 20.9055 1.53638C15.8871 -0.275355 10.235 2.2068 7.55638 7.9892C5.97394 11.4092 5.47967 15.6033 5.01729 19.6737" fill="#A9C593"/>
<path d="M31.4366 15.8667C30.5677 12.8378 29.2244 9.93662 27.339 7.40258C25.7326 5.24366 23.628 3.27629 21.1049 2.25869C18.7691 1.3169 16.1463 1.33685 13.8384 2.35845C11.2793 3.49178 9.33815 5.6507 8.15031 8.15281C6.45626 11.7164 6.06563 15.8028 5.62717 19.6737C5.53948 20.4399 4.32773 20.4479 4.41542 19.6737C5.15283 13.157 6.04172 5.25164 12.4154 1.71596C14.8349 0.375117 17.7128 -0.0199537 20.3874 0.730281C23.062 1.48052 25.5612 3.39202 27.4107 5.56291C29.8661 8.44014 31.5642 11.92 32.6045 15.5434C32.8198 16.2937 31.6519 16.6169 31.4366 15.8667Z" fill="#A9C593"/>
<path d="M32.0305 15.8427C30.1611 18.6162 27.3469 21.0305 24.6564 22.0481C23.4008 22.523 22.0974 22.7784 20.786 22.926C15.5444 23.5206 10.1314 22.3953 5.12094 19.6657" fill="#A9C593"/>
<path d="M32.5566 16.15C30.4082 19.3066 27.2951 22.0401 23.5482 23.0378C19.634 24.0793 15.3131 23.8399 11.4188 22.8263C9.11886 22.2277 6.90263 21.3178 4.81396 20.1885C4.12837 19.8174 4.73823 18.7678 5.42781 19.139C8.83984 20.9826 12.6066 22.1798 16.489 22.4232C20.3714 22.6667 24.0664 22.1838 27.1795 19.985C28.8735 18.7878 30.3444 17.2474 31.5123 15.5354C31.9507 14.8929 32.9991 15.4995 32.5606 16.15H32.5566Z" fill="#A9C593"/>
<path d="M31.3848 15.4237C26.0993 16.8723 20.6584 17.3113 15.2374 17.7462C13.655 17.8739 12.0725 18.0016 10.4941 18.1254" fill="#A9C593"/>
<path d="M31.5481 16.0103C24.7002 17.8699 17.5293 18.1692 10.494 18.7359C9.71674 18.7998 9.72073 17.5826 10.494 17.5228C17.4257 16.9681 24.4809 16.6728 31.2253 14.8411C31.9786 14.6375 32.3015 15.8068 31.5481 16.0103Z" fill="#A9C593"/>
<path d="M12.9774 19.0352C11.2036 19.1908 9.43385 19.3464 7.66008 19.5021Z" fill="#A9C593"/>
<path d="M12.9774 19.6418C11.2036 19.7974 9.43382 19.953 7.66004 20.1087C7.33319 20.1366 7.05416 19.8094 7.05416 19.5021C7.05416 19.1509 7.33319 18.9235 7.66004 18.8955C9.43382 18.7399 11.2036 18.5842 12.9774 18.4286C13.3042 18.4007 13.5833 18.7279 13.5833 19.0352C13.5833 19.3864 13.3042 19.6138 12.9774 19.6418Z" fill="#A9C593"/>
<path d="M20.7381 16.4812C28.5945 59.8791 32.8157 104.494 33.2462 148.682C33.294 153.475 33.2701 158.451 31.9667 162.577C30.6632 166.704 27.6937 169.697 24.7719 168.248C28.2278 157.453 27.9847 144.245 27.4306 131.642C25.6289 90.6706 21.3718 49.6392 14.7311 9.2981" fill="#A9C593"/>
<path d="M21.6948 16.2178C23.616 26.8408 25.318 37.5037 26.7969 48.1986C28.2796 58.9134 29.5472 69.6601 30.5915 80.4268C31.6359 91.1934 32.457 101.92 33.0549 112.691C33.6568 123.489 34.0394 134.304 34.1949 145.119C34.2666 150.223 34.5178 155.45 33.5173 160.486C32.8197 163.998 30.9024 169.126 26.7251 169.585C25.8601 169.681 25.047 169.469 24.2697 169.11C23.8871 168.935 23.6918 168.376 23.8113 167.989C26.7171 158.822 26.9204 148.997 26.7052 139.464C26.474 129.032 25.8283 118.597 25.1347 108.189C24.4292 97.6063 23.5562 87.0352 22.5278 76.4761C21.4955 65.9249 20.3036 55.3897 18.9484 44.8744C17.5932 34.3671 16.0745 23.8798 14.3924 13.4164C14.1851 12.1314 13.9778 10.8505 13.7666 9.56548C13.5553 8.28051 15.4766 7.7737 15.6839 9.03473C17.4058 19.5061 18.9643 30.0054 20.3674 40.5246C21.7785 51.1357 23.0261 61.7667 24.1103 72.4176C25.1905 83.0206 26.1033 93.6436 26.8527 104.275C27.598 114.858 28.2318 125.457 28.5945 136.06C28.9294 145.753 28.9732 155.698 26.6613 165.179C26.3863 166.301 26.0754 167.414 25.7246 168.511L25.2662 167.39C26.745 168.077 28.1521 167.075 29.0888 165.969C30.4799 164.325 31.1456 162.17 31.5681 160.091C32.5566 155.251 32.2736 150.179 32.2019 145.274C32.0544 134.823 31.6957 124.371 31.1297 113.936C30.5636 103.528 29.7943 93.1289 28.8178 82.7533C27.8372 72.3138 26.6494 61.8943 25.2503 51.4988C23.8592 41.1512 22.2568 30.8354 20.4471 20.5516C20.2239 19.2826 19.9967 18.0136 19.7695 16.7446C19.5423 15.4756 21.4596 14.9568 21.6868 16.2138L21.6948 16.2178Z" fill="#A9C593"/>
<path d="M9.97578 52.3329C18.8168 72.1024 25.6727 92.9693 30.2805 114.163C30.7788 116.462 31.2571 118.86 30.9103 121.027C30.5635 123.194 29.1326 125.054 27.295 124.766C28.2357 119.088 26.7888 112.771 25.2223 106.785C20.1321 87.3305 13.611 68.1916 5.77851 49.723" fill="#A9C593"/>
<path d="M10.4382 52.0615C14.775 61.7627 18.6255 71.6793 21.9657 81.7676C25.306 91.8559 28.16 102.156 30.4759 112.555C31.0977 115.349 31.8989 118.298 31.4285 121.175C31.1017 123.178 29.6348 125.612 27.295 125.309C26.9243 125.261 26.7171 125.006 26.7769 124.627C27.5741 119.678 26.5975 114.602 25.4296 109.794C24.2298 104.849 22.8427 99.9448 21.4117 95.0643C18.5338 85.2554 15.2932 75.5542 11.6978 65.9847C9.68084 60.6134 7.5523 55.2819 5.31216 49.9984C5.0451 49.3678 5.96986 48.8171 6.24091 49.4556C10.2827 58.9852 13.9738 68.6664 17.2941 78.4714C20.6145 88.2763 23.608 98.185 26.1431 108.213C27.5143 113.633 28.7141 119.319 27.8132 124.918L27.295 124.236C29.3917 124.507 30.3164 122.009 30.4559 120.325C30.6672 117.747 29.9537 115.157 29.3957 112.663C28.2876 107.699 27.0599 102.762 25.7126 97.8577C22.9981 87.973 19.8053 78.2239 16.1501 68.6505C14.0854 63.2432 11.8731 57.8958 9.50944 52.6122C9.23042 51.9857 10.1552 51.435 10.4382 52.0695V52.0615Z" fill="#A9C593"/>
<path d="M15.1936 49.6791C13.4358 45.8082 10.5698 42.7315 7.70787 42.069C4.84591 41.4066 2.13144 43.3899 1.36612 47.1172C0.911715 49.32 1.12696 51.8979 1.34221 54.4" fill="#A9C593"/>
<path d="M14.8946 49.8547C14.1014 48.1228 13.0849 46.4747 11.7815 45.0819C10.7053 43.9366 9.39389 42.8911 7.85529 42.4641C6.49606 42.085 5.06906 42.3603 3.95298 43.2303C2.68941 44.216 1.99187 45.7524 1.68893 47.2887C1.23054 49.6153 1.48963 52.0535 1.68893 54.396C1.72879 54.843 1.03124 54.839 0.991376 54.396C0.668509 50.6408 0.0825608 45.6765 3.26739 42.8911C4.37151 41.9254 5.81047 41.4465 7.26935 41.638C8.88368 41.8495 10.3306 42.7714 11.5145 43.8488C13.2284 45.4052 14.5279 47.4085 15.4925 49.5035C15.6798 49.9066 15.0779 50.2617 14.8906 49.8547H14.8946Z" fill="#A9C593"/>
<path d="M15.2175 49.7629C14.5399 51.6026 13.3242 53.3026 12.0128 54.1446C11.3989 54.5397 10.7372 54.8071 10.0596 55.0066C7.34914 55.8167 4.35564 55.6012 1.39404 54.3801" fill="#A9C593"/>
<path d="M15.5523 49.8547C15.074 51.1237 14.4004 52.3209 13.4836 53.3266C12.5668 54.3322 11.383 54.9867 10.0676 55.3698C7.16179 56.2158 4.07661 55.8446 1.29836 54.7193C0.887799 54.5517 1.06717 53.8773 1.48171 54.0489C4.03675 55.0824 6.84688 55.4855 9.54541 54.7911C10.789 54.4719 11.9251 53.9411 12.8259 53.0073C13.7267 52.0735 14.4123 50.8923 14.8747 49.6712C15.0302 49.2561 15.7038 49.4357 15.5444 49.8547H15.5523Z" fill="#A9C593"/>
<path d="M14.8269 49.5634C12.1921 50.8923 9.3581 51.6266 6.536 52.3528C5.7109 52.5644 4.88977 52.7798 4.06467 52.9913" fill="#A9C593"/>
<path d="M15.0022 49.8627C11.5902 51.5627 7.82742 52.3768 4.1563 53.3266C3.72182 53.4383 3.53847 52.7679 3.97295 52.6561C7.58029 51.7263 11.2953 50.9362 14.6515 49.2641C15.0501 49.0646 15.4048 49.6672 15.0022 49.8667V49.8627Z" fill="#A9C593"/>
<path d="M5.48364 53.3265C4.56287 53.574 3.6421 53.8174 2.72133 54.0648Z" fill="#A9C593"/>
<path d="M5.57532 53.6618C4.65456 53.9092 3.73379 54.1526 2.81302 54.4C2.37854 54.5157 2.19519 53.8453 2.62967 53.7296C3.55044 53.4822 4.4712 53.2388 5.39197 52.9913C5.82645 52.8756 6.0098 53.546 5.57532 53.6618Z" fill="#A9C593"/>
<path d="M38.3483 35.7878C38.6712 57.4488 36.734 79.3293 32.6045 100.623C32.158 102.934 31.6518 105.324 30.4759 107.176C29.3001 109.031 27.2552 110.173 25.6808 109.183C28.7859 104.339 29.9498 97.9615 30.8745 91.8439C33.876 71.9587 35.4345 51.7981 35.5262 31.7333" fill="#A9C593"/>
<path d="M38.8865 35.7878C39.0419 46.5545 38.6473 57.3251 37.7106 68.0519C36.7699 78.7986 35.2831 89.5014 33.2542 100.096C32.7679 102.635 32.3215 105.388 30.8546 107.579C29.7027 109.295 27.4586 110.859 25.4097 109.646C25.1666 109.502 25.059 109.155 25.2184 108.908C27.6818 105.029 28.8258 100.48 29.6469 96.0061C30.5637 91.0178 31.2094 85.9697 31.8352 80.9336C33.1307 70.4902 34.0275 59.9988 34.5258 49.4876C34.8088 43.5695 34.9602 37.6474 34.9881 31.7254C34.9881 31.031 36.0683 31.031 36.0644 31.7254C36.0125 42.3683 35.5542 53.0073 34.6892 63.6143C33.8362 74.0737 32.6802 84.557 30.9264 94.9087C30.0774 99.9289 28.9095 105.097 26.1472 109.446L25.9558 108.708C27.7456 109.766 29.5711 107.77 30.3404 106.338C31.4326 104.307 31.8113 101.944 32.2378 99.7054C33.2104 94.6094 34.0594 89.4894 34.7809 84.3535C36.2278 74.0458 37.1605 63.6662 37.587 53.2667C37.8262 47.4404 37.9019 41.6061 37.8142 35.7758C37.8023 35.0815 38.8785 35.0815 38.8904 35.7758L38.8865 35.7878Z" fill="#A9C593"/>
<path d="M45.5909 34.3273C44.5028 29.8897 42.1869 26.0827 39.4804 24.8296C36.7739 23.5766 33.7724 25.1529 32.4012 28.948C31.5921 31.1947 31.3728 33.9642 31.1735 36.6538" fill="#A9C593"/>
<path d="M45.24 34.4231C44.7577 32.4876 44.0521 30.6 43.0237 28.8881C42.1947 27.5073 41.1264 26.1545 39.7034 25.3524C38.4398 24.6381 36.953 24.5742 35.6695 25.2806C34.1349 26.1226 33.1743 27.7348 32.6402 29.355C31.8669 31.6975 31.7154 34.2076 31.5321 36.6538C31.4962 37.1127 30.7747 37.1167 30.8106 36.6538C31.1056 32.7071 31.2491 27.3836 34.9002 24.9054C36.1718 24.0395 37.7901 23.7961 39.241 24.3388C40.8155 24.9294 42.0432 26.1904 43.0038 27.5313C44.4268 29.5226 45.3516 31.8691 45.9415 34.2315C46.0531 34.6824 45.3595 34.874 45.244 34.4231H45.24Z" fill="#A9C593"/>
<path d="M45.5989 34.4191C44.6263 36.2348 43.1475 37.7991 41.7165 38.4416C41.0468 38.7409 40.3533 38.8965 39.6517 38.9803C36.8496 39.3155 33.9398 38.5094 31.2213 36.6458" fill="#A9C593"/>
<path d="M45.9098 34.6026C45.2162 35.8756 44.3074 37.0648 43.1634 37.9627C42.0194 38.8606 40.7957 39.2317 39.4166 39.3674C36.4271 39.6547 33.4973 38.6212 31.0459 36.9611C30.6633 36.7017 31.026 36.0752 31.4087 36.3385C33.6807 37.8749 36.3274 38.8566 39.0977 38.6731C40.441 38.5853 41.7125 38.2181 42.7728 37.3601C43.8331 36.5022 44.6462 35.4167 45.288 34.2395C45.5112 33.8324 46.133 34.1956 45.9098 34.6026Z" fill="#A9C593"/>
<path d="M45.248 34.1357C42.4339 35.0336 39.5241 35.2651 36.6223 35.4926C35.7773 35.5604 34.9322 35.6242 34.0832 35.6921" fill="#A9C593"/>
<path d="M45.3437 34.4829C41.7125 35.6243 37.854 35.7559 34.0872 36.0512C33.6249 36.0872 33.6249 35.3649 34.0872 35.3289C37.7942 35.0376 41.5809 34.9099 45.1524 33.7886C45.5949 33.6489 45.7862 34.3473 45.3437 34.4869V34.4829Z" fill="#A9C593"/>
<path d="M35.4226 36.3186C34.4739 36.4024 33.5292 36.4862 32.5806 36.57Z" fill="#A9C593"/>
<path d="M35.4225 36.6817C34.4739 36.7655 33.5292 36.8493 32.5805 36.9331C32.3852 36.9491 32.2178 36.7536 32.2178 36.57C32.2178 36.3585 32.3852 36.2268 32.5805 36.2068C33.5292 36.123 34.4739 36.0392 35.4225 35.9554C35.6179 35.9395 35.7853 36.135 35.7853 36.3186C35.7853 36.5301 35.6179 36.6618 35.4225 36.6817Z" fill="#A9C593"/>
<path d="M50.4739 59.8352C47.7554 81.3247 42.7729 102.718 35.7017 123.222C34.9364 125.445 34.0993 127.739 32.6723 129.412C31.2493 131.084 29.065 131.926 27.642 130.724C31.3928 126.363 33.4416 120.213 35.2114 114.287C40.9712 95.0205 45.3399 75.2789 48.2417 55.4216" fill="#A9C593"/>
<path d="M51.012 59.8353C49.6607 70.5022 47.7713 81.1012 45.3478 91.5766C42.9164 102.076 39.9548 112.447 36.471 122.643C35.622 125.126 34.7929 127.763 33.055 129.791C31.6559 131.427 29.1686 132.628 27.2633 131.104C27.0241 130.912 27.0919 130.545 27.2633 130.341C30.2289 126.866 31.9867 122.52 33.4177 118.23C35.0121 113.441 36.3554 108.561 37.6708 103.688C40.4251 93.508 42.7928 83.2202 44.7659 72.8566C45.878 67.0184 46.8625 61.1562 47.7235 55.274C47.8232 54.5916 48.8595 54.8829 48.7599 55.5613C47.2133 66.1165 45.2641 76.6118 42.9124 87.0153C40.6045 97.2193 38.0096 107.407 34.8208 117.372C33.2662 122.236 31.3729 127.173 28.0167 131.1V130.337C29.6828 131.674 31.8831 129.683 32.7919 128.362C34.1073 126.447 34.8048 124.168 35.5462 121.989C37.2124 117.105 38.755 112.18 40.178 107.22C43.028 97.2831 45.3917 87.2108 47.2571 77.0468C48.3055 71.3362 49.1983 65.5937 49.9278 59.8313C50.0155 59.1529 51.0917 59.1449 51.004 59.8313L51.012 59.8353Z" fill="#A9C593"/>
<path d="M56.6482 59.0451C56.8993 55.3817 55.7792 51.7742 53.5232 49.9305C51.2671 48.0869 47.8909 48.2505 45.4435 50.6129C43.9966 52.0096 42.9682 53.993 41.9797 55.9244" fill="#A9C593"/>
<path d="M56.3213 59.0451C56.5126 56.0122 55.8709 52.4526 53.4992 50.3376C51.1275 48.2225 47.564 48.877 45.4475 51.0758C44.0683 52.5084 43.1635 54.3361 42.2666 56.092C42.0753 56.4671 41.5093 56.1359 41.7006 55.7608C43.295 52.6441 45.2282 49.0007 49.0548 48.4261C50.5496 48.2026 52.1081 48.5258 53.3557 49.3958C54.6033 50.2657 55.4962 51.5946 56.0742 53.0033C56.8554 54.9028 57.1026 57.0059 56.975 59.0491C56.9471 59.4681 56.2934 59.4721 56.3213 59.0491V59.0451Z" fill="#A9C593"/>
<path d="M56.6282 59.1169C55.1494 60.1385 53.256 60.8049 51.6775 60.8009C50.9401 60.8009 50.2227 60.6812 49.5171 60.5056C46.703 59.8113 44.1161 58.235 42.0314 55.9364" fill="#A9C593"/>
<path d="M56.7916 59.3963C55.6436 60.1744 54.3283 60.7571 52.9571 61.0045C51.5859 61.2519 50.115 61.0484 48.7438 60.6334C46.0613 59.8233 43.6856 58.227 41.8002 56.1679C41.5172 55.8566 41.9756 55.3937 42.2626 55.7049C44.0404 57.6444 46.2486 59.1648 48.7678 59.9549C50.0632 60.362 51.4304 60.6134 52.7857 60.374C54.1409 60.1345 55.3566 59.5838 56.4648 58.8336C56.8155 58.5981 57.1424 59.1648 56.7956 59.4003L56.7916 59.3963Z" fill="#A9C593"/>
<path d="M56.3732 58.7857C53.3797 58.5064 50.4898 57.7003 47.6079 56.8942C46.7669 56.6587 45.9298 56.4233 45.0888 56.1878" fill="#A9C593"/>
<path d="M56.3732 59.1129C52.4908 58.7378 48.7439 57.5486 45.0051 56.5031C44.6025 56.3913 44.7739 55.7568 45.1805 55.8726C48.8595 56.9021 52.5546 58.0873 56.3772 58.4585C56.7917 58.4984 56.7957 59.1528 56.3772 59.1129H56.3732Z" fill="#A9C593"/>
<path d="M46.2008 57.1056C45.2561 56.8502 44.3154 56.5908 43.3707 56.3354Z" fill="#A9C593"/>
<path d="M46.1171 57.4209C45.1724 57.1655 44.2317 56.9061 43.2871 56.6507C42.8805 56.5389 43.0519 55.9084 43.4624 56.0202C44.4071 56.2756 45.3478 56.535 46.2925 56.7904C46.6991 56.9021 46.5277 57.5326 46.1171 57.4209Z" fill="#A9C593"/>
<path d="M14.4203 104.139C20.6983 117.22 25.6609 131.076 29.1287 145.186C29.5034 146.715 29.8661 148.315 29.6748 149.772C29.4795 151.228 28.5587 152.501 27.323 152.342C27.8492 148.523 26.769 144.316 25.613 140.334C21.8542 127.396 17.1467 114.694 11.5663 102.463" fill="#A9C593"/>
<path d="M14.7312 103.959C17.8204 110.408 20.5867 117.013 23.0142 123.741C25.4536 130.505 27.5542 137.389 29.2961 144.364C29.7545 146.204 30.3405 148.187 29.9817 150.091C29.7386 151.392 28.8019 152.832 27.3191 152.701C27.1437 152.685 26.9324 152.545 26.9603 152.342C27.3988 149.005 26.6933 145.649 25.8283 142.437C24.9633 139.224 23.931 135.912 22.8906 132.68C20.794 126.171 18.4582 119.742 15.8872 113.405C14.4203 109.786 12.8738 106.198 11.2554 102.646C11.0641 102.227 11.6859 101.86 11.8772 102.283C14.7352 108.557 17.366 114.93 19.7536 121.398C22.1652 127.923 24.3575 134.543 26.2468 141.24C27.2553 144.819 28.1761 148.602 27.6818 152.342L27.3231 151.982C28.8338 152.118 29.344 150.246 29.3679 149.065C29.4038 147.325 28.8656 145.593 28.4431 143.925C27.61 140.625 26.6933 137.345 25.7007 134.088C23.7197 127.596 21.4317 121.199 18.8408 114.926C17.362 111.35 15.7835 107.814 14.1134 104.327C13.9141 103.911 14.5359 103.544 14.7352 103.963L14.7312 103.959Z" fill="#A9C593"/>
<path d="M17.8683 102.267C16.6207 99.7053 14.6476 97.6981 12.7184 97.303C10.7891 96.9079 9.00737 98.2887 8.56094 100.795C8.29786 102.279 8.48522 103.999 8.67256 105.671" fill="#A9C593"/>
<path d="M17.669 102.387C16.9715 100.974 16.0507 99.6335 14.823 98.6319C13.8544 97.8417 12.5749 97.2192 11.3073 97.5784C10.0398 97.9375 9.20272 99.1746 8.88384 100.428C8.45335 102.128 8.72041 103.959 8.91173 105.675C8.94362 105.975 8.47727 105.971 8.44538 105.675C8.16237 103.169 7.68405 99.877 9.75279 97.9495C11.4588 96.3572 13.7229 97.0676 15.3093 98.4323C16.4892 99.446 17.39 100.763 18.0716 102.148C18.2031 102.415 17.8005 102.654 17.669 102.383V102.387Z" fill="#A9C593"/>
<path d="M17.8843 102.323C17.4618 103.568 16.6765 104.726 15.8155 105.316C15.4129 105.591 14.9745 105.783 14.5241 105.931C12.7224 106.521 10.7134 106.43 8.70848 105.667" fill="#A9C593"/>
<path d="M18.1114 102.383C17.4976 104.131 16.3855 105.564 14.5878 106.154C12.6426 106.793 10.546 106.597 8.64863 105.891C8.36961 105.787 8.4892 105.336 8.77221 105.44C10.4982 106.082 12.3716 106.302 14.1613 105.795C14.9984 105.56 15.7557 105.18 16.3536 104.53C16.9515 103.88 17.37 103.085 17.661 102.259C17.7607 101.976 18.2111 102.1 18.1114 102.383Z" fill="#A9C593"/>
<path d="M17.6211 102.195C15.8792 103.133 13.9938 103.676 12.1164 104.215C11.5703 104.37 11.0203 104.53 10.4742 104.686" fill="#A9C593"/>
<path d="M17.7367 102.399C15.4806 103.6 12.9734 104.211 10.534 104.913C10.243 104.997 10.1194 104.546 10.4104 104.462C12.81 103.772 15.2853 103.177 17.5015 101.996C17.7646 101.856 18.0038 102.259 17.7367 102.399Z" fill="#A9C593"/>
<path d="M11.4309 104.885C10.8171 105.065 10.2072 105.248 9.59336 105.428Z" fill="#A9C593"/>
<path d="M11.4907 105.113C10.8768 105.292 10.267 105.476 9.65311 105.655C9.36612 105.739 9.24255 105.292 9.52955 105.204C10.1434 105.025 10.7532 104.841 11.3671 104.662C11.6541 104.578 11.7777 105.025 11.4907 105.113Z" fill="#A9C593"/>
</g>
<defs>
<clipPath id="clip0_115_1160">
<rect width="57" height="170" fill="white" transform="matrix(-1 0 0 1 57.3457 0)"/>
</clipPath>
</defs>
</svg>
