<svg width="115" height="439" viewBox="0 0 115 439" fill="none" xmlns="http://www.w3.org/2000/svg">
<g clip-path="url(#clip0_108_1094)">
<path d="M27.9897 48.89C33.1097 27.99 43.9697 10.06 56.6797 4.14C69.3897 -1.77 83.4698 5.65999 89.8898 23.53C93.6898 34.1 94.6998 47.14 95.6398 59.81" fill="black"/>
<path d="M29.6298 49.34C31.9298 40.03 35.3598 30.93 40.3598 22.72C44.2898 16.26 49.3698 9.98002 56.1198 6.32002C61.9798 3.15002 68.8098 3.04001 74.6598 6.31001C81.7198 10.26 86.1598 17.67 88.6598 25.15C92.3798 36.26 93.0798 48.2 93.9498 59.8C94.1098 61.97 97.5098 61.98 97.3398 59.8C96.5198 48.71 95.7998 37.37 92.6798 26.64C90.2098 18.14 85.8198 9.83001 78.4098 4.66001C72.3498 0.430013 64.5698 -0.769987 57.6298 1.91001C50.1198 4.81001 44.2998 10.92 39.7798 17.4C33.3098 26.67 29.0598 37.51 26.3598 48.44C25.8398 50.56 29.1098 51.47 29.6298 49.34Z" fill="black"/>
<path d="M27.95 49.33C32.5 57.88 39.4399 65.2399 46.1499 68.2599C49.2799 69.6699 52.5499 70.3999 55.8299 70.7899C68.9699 72.3599 82.6399 68.5599 95.3799 59.7899" fill="black"/>
<path d="M26.4899 50.18C31.1499 58.85 38.3199 67.4 47.8599 70.75C57.3999 74.1 69.4399 73.19 79.2699 69.86C85.3099 67.82 90.9899 64.85 96.2499 61.25C98.0399 60.02 96.3499 57.08 94.5399 58.32C86.0999 64.09 76.4499 68.31 66.1899 69.23C61.2699 69.67 56.1999 69.47 51.3999 68.26C46.8999 67.13 43.0199 64.87 39.5999 61.75C35.4499 57.96 32.0799 53.39 29.4199 48.45C28.3799 46.53 25.4499 48.24 26.4899 50.16V50.18Z" fill="black"/>
<path d="M29.5999 47.98C42.8099 52.21 56.4598 53.28 70.0598 54.35C74.0298 54.66 77.9998 54.97 81.9698 55.28" fill="black"/>
<path d="M29.1498 49.62C46.1598 55.02 64.3098 55.6 81.9698 56.98C84.1498 57.15 84.1398 53.76 81.9698 53.59C64.5998 52.23 46.7898 51.66 30.0498 46.35C27.9598 45.69 27.0698 48.96 29.1498 49.62Z" fill="black"/>
<path d="M75.6799 58.25C80.1299 58.64 84.5699 59.03 89.0199 59.42Z" fill="black"/>
<path d="M75.68 59.95C80.13 60.34 84.57 60.73 89.02 61.12C89.93 61.2 90.72 60.28 90.72 59.42C90.72 58.44 89.94 57.8 89.02 57.72C84.57 57.33 80.13 56.94 75.68 56.55C74.77 56.47 73.98 57.39 73.98 58.25C73.98 59.23 74.76 59.87 75.68 59.95Z" fill="black"/>
<path d="M55.96 54.64C36.25 163.39 25.66 275.19 24.58 385.92C24.46 397.93 24.52 410.4 27.79 420.74C31.06 431.08 38.51 438.58 45.84 434.95C37.17 407.9 37.78 374.8 39.17 343.22C43.69 240.55 54.37 137.73 71.03 36.64" fill="black"/>
<path d="M53.56 53.98C48.74 80.6 44.47 107.32 40.76 134.12C37.04 160.97 33.86 187.9 31.24 214.88C28.62 241.86 26.56 268.74 25.06 295.73C23.56 322.72 22.59 349.89 22.2 376.99C22.02 389.78 21.39 402.88 23.9 415.5C25.65 424.3 30.46 437.15 40.94 438.3C43.11 438.54 45.15 438.01 47.1 437.11C48.06 436.67 48.55 435.27 48.25 434.3C40.96 411.33 40.45 386.71 40.99 362.82C41.57 336.68 43.19 310.53 44.93 284.45C46.7 257.93 48.89 231.44 51.47 204.98C54.06 178.54 57.05 152.14 60.45 125.79C63.85 99.46 67.66 73.18 71.88 46.96C72.4 43.74 72.92 40.53 73.45 37.31C73.98 34.09 69.16 32.82 68.64 35.98C64.32 62.22 60.41 88.53 56.89 114.89C53.35 141.48 50.22 168.12 47.5 194.81C44.79 221.38 42.5 248 40.62 274.64C38.74 301.28 37.16 327.72 36.25 354.29C35.41 378.58 35.3 403.5 41.1 427.26C41.79 430.07 42.57 432.86 43.45 435.61L44.6 432.8C40.89 434.52 37.36 432.01 35.01 429.24C31.52 425.12 29.85 419.72 28.79 414.51C26.31 402.38 27.02 389.67 27.2 377.38C27.57 351.19 28.47 325 29.89 298.85C31.31 272.77 33.24 246.71 35.69 220.71C38.15 194.55 41.13 168.44 44.64 142.39C48.13 116.46 52.15 90.61 56.69 64.84C57.25 61.66 57.82 58.48 58.39 55.3C58.96 52.12 54.15 50.82 53.58 53.97L53.56 53.98Z" fill="black"/>
<path d="M87.95 120.5C64.16 169.29 45.26 220.99 31.96 273.69C30.52 279.41 29.12 285.37 29.82 290.83C30.52 296.29 33.95 301.06 38.58 300.49C36.69 286.19 40.83 270.49 45.25 255.62C59.6 207.31 77.53 159.92 98.69 114.3" fill="black"/>
<path d="M86.78 119.82C75.11 143.76 64.66 168.29 55.45 193.28C46.25 218.25 38.29 243.69 31.65 269.46C29.85 276.45 27.51 283.89 28.52 291.19C29.22 296.25 32.65 302.41 38.58 301.84C39.23 301.78 40.03 301.27 39.93 300.49C38.33 287.96 41.1 275.35 44.43 263.32C47.82 251.06 51.69 238.92 55.67 226.84C63.69 202.51 72.6 178.48 82.38 154.8C87.92 141.4 93.74 128.13 99.84 114.98C100.57 113.41 98.24 112.04 97.51 113.62C86.63 137.08 76.62 160.95 67.51 185.16C58.41 209.34 50.12 233.87 42.93 258.69C39.03 272.14 35.42 286.39 37.22 300.49L38.57 299.14C33.29 299.65 31.22 293.24 31.01 289.04C30.69 282.58 32.7 276.14 34.3 269.95C37.52 257.49 41.04 245.11 44.86 232.83C52.47 208.38 61.25 184.29 71.18 160.68C76.79 147.35 82.77 134.18 89.1 121.18C89.86 119.63 87.53 118.26 86.77 119.82H86.78Z" fill="black"/>
<path d="M74 114.1C76.74 102.98 82.55 93.44 89.36 90.3C96.17 87.16 103.72 91.12 107.16 100.63C109.2 106.26 109.75 113.2 110.26 119.94" fill="black"/>
<path d="M74.87 114.34C76.08 109.49 77.85 104.76 80.44 100.47C82.53 97 85.21 93.62 88.79 91.61C91.97 89.82 95.6999 89.66 98.9299 91.43C102.79 93.54 105.2 97.58 106.55 101.65C108.5 107.52 108.88 113.81 109.34 119.94C109.43 121.1 111.24 121.11 111.15 119.94C110.4 110.04 110.04 96.71 100.86 90.5C97.6599 88.33 93.59 87.72 89.94 89.08C85.99 90.55 82.9 93.71 80.48 97.08C76.9 102.07 74.58 107.94 73.1 113.87C72.82 115 74.56 115.48 74.85 114.35L74.87 114.34Z" fill="black"/>
<path d="M73.98 114.33C76.42 118.88 80.15 122.8 83.74 124.41C85.42 125.16 87.17 125.55 88.93 125.76C95.97 126.6 103.3 124.58 110.12 119.92" fill="black"/>
<path d="M73.1999 114.79C74.9499 117.98 77.2299 120.96 80.1099 123.21C82.9899 125.46 86.0599 126.4 89.5399 126.73C97.0599 127.45 104.42 124.87 110.59 120.7C111.55 120.05 110.65 118.48 109.68 119.13C103.97 122.99 97.3099 125.43 90.3499 124.98C86.9699 124.76 83.7699 123.84 81.1099 121.69C78.4499 119.54 76.3999 116.82 74.7799 113.87C74.2199 112.85 72.6499 113.76 73.2099 114.78L73.1999 114.79Z" fill="black"/>
<path d="M74.8599 113.61C81.9399 115.86 89.2599 116.44 96.5499 117.01C98.6799 117.18 100.8 117.34 102.93 117.51" fill="black"/>
<path d="M74.6199 114.49C83.7499 117.35 93.4499 117.68 102.93 118.42C104.09 118.51 104.09 116.7 102.93 116.61C93.6099 115.88 84.09 115.55 75.1 112.74C73.98 112.39 73.5099 114.14 74.6199 114.49Z" fill="black"/>
<path d="M99.5598 119.09C101.94 119.3 104.32 119.51 106.71 119.72Z" fill="black"/>
<path d="M99.5599 120C101.94 120.21 104.32 120.42 106.71 120.63C107.2 120.67 107.62 120.18 107.62 119.72C107.62 119.19 107.2 118.86 106.71 118.81C104.33 118.6 101.95 118.39 99.5599 118.18C99.0699 118.14 98.6499 118.63 98.6499 119.09C98.6499 119.62 99.0699 119.95 99.5599 120Z" fill="black"/>
<path d="M17.5401 110.05C14.9001 164.27 17.9101 219.23 26.4601 272.91C27.3901 278.73 28.4601 284.76 31.2501 289.5C34.0401 294.24 39.0701 297.27 43.1101 294.93C35.7401 282.53 33.3601 266.47 31.5601 251.07C25.7101 201.02 23.5101 150.39 24.9801 100.13" fill="black"/>
<path d="M16.19 110.05C14.88 137.08 14.97 164.17 16.43 191.19C17.89 218.21 20.69 244.79 24.85 271.34C25.87 277.83 26.75 284.83 30.28 290.52C33.03 294.95 38.55 298.95 43.78 296.1C44.42 295.75 44.63 294.87 44.26 294.25C38.45 284.4 35.97 272.97 34.29 261.77C32.4 249.18 31.21 236.45 30.07 223.78C27.7 197.43 26.33 170.99 25.96 144.54C25.76 129.73 25.87 114.92 26.3 100.12C26.35 98.3799 23.65 98.3799 23.6 100.12C22.83 126.78 23.08 153.47 24.35 180.12C25.61 206.39 27.62 232.73 31.15 258.8C32.86 271.46 35.35 284.47 41.92 295.61L42.4 293.76C37.81 296.27 33.4 290.98 31.6 287.35C28.97 282.05 28.26 275.9 27.36 270.13C25.37 257.36 23.7 244.55 22.34 231.7C19.61 205.81 18.14 179.78 17.96 153.75C17.86 139.18 18.16 124.6 18.87 110.04C18.95 108.3 16.26 108.31 16.17 110.04L16.19 110.05Z" fill="black"/>
<path d="M1.1499 106.19C3.8799 95.0701 9.6899 85.53 16.4799 82.39C23.2699 79.25 30.7999 83.2001 34.2399 92.7101C36.2699 98.3401 36.8199 105.28 37.3199 112.02" fill="black"/>
<path d="M2.02988 106.43C3.23988 101.58 5.00988 96.85 7.58988 92.56C9.66988 89.1 12.3499 85.71 15.9199 83.7C19.0899 81.91 22.8199 81.75 26.0399 83.52C29.8899 85.63 32.2999 89.67 33.6399 93.73C35.5799 99.6 35.9599 105.89 36.4199 112.02C36.5099 113.17 38.3199 113.18 38.2299 112.02C37.4899 102.13 37.1299 88.79 27.9699 82.58C24.7799 80.41 20.7199 79.8 17.0799 81.16C13.1299 82.64 10.0499 85.8 7.63988 89.16C4.06988 94.15 1.74988 100.03 0.269884 105.95C-0.0101165 107.08 1.72988 107.56 2.01988 106.43H2.02988Z" fill="black"/>
<path d="M1.12988 106.42C3.56988 110.97 7.27987 114.89 10.8699 116.5C12.5499 117.25 14.2899 117.64 16.0499 117.85C23.0799 118.69 30.3799 116.67 37.1999 112" fill="black"/>
<path d="M0.349914 106.88C2.08991 110.07 4.36991 113.05 7.23991 115.3C10.1099 117.55 13.1799 118.48 16.6399 118.82C24.1399 119.54 31.4899 116.95 37.6399 112.79C38.5999 112.14 37.6899 110.57 36.7299 111.23C31.0299 115.08 24.3899 117.54 17.4399 117.08C14.0699 116.86 10.8799 115.94 8.21991 113.79C5.55991 111.64 3.51991 108.92 1.90991 105.97C1.34991 104.95 -0.210086 105.86 0.349914 106.88Z" fill="black"/>
<path d="M2.01001 105.71C9.07001 107.96 16.37 108.54 23.65 109.11C25.77 109.28 27.89 109.44 30.02 109.61" fill="black"/>
<path d="M1.76993 106.58C10.8799 109.44 20.5599 109.77 30.0099 110.51C31.1699 110.6 31.1699 108.79 30.0099 108.7C20.7099 107.97 11.2099 107.65 2.24993 104.84C1.13993 104.49 0.659934 106.24 1.76993 106.59V106.58Z" fill="black"/>
<path d="M26.6599 111.18C29.0399 111.39 31.4099 111.6 33.7899 111.81Z" fill="black"/>
<path d="M26.66 112.08C29.04 112.29 31.41 112.5 33.79 112.71C34.28 112.75 34.7 112.26 34.7 111.8C34.7 111.27 34.28 110.94 33.79 110.89C31.41 110.68 29.04 110.47 26.66 110.26C26.17 110.22 25.75 110.71 25.75 111.17C25.75 111.7 26.17 112.03 26.66 112.08Z" fill="black"/>
<path d="M91.49 202.72C65.57 250.41 44.41 301.23 28.8 353.29C27.11 358.94 25.45 364.83 25.91 370.32C26.37 375.8 29.5801 380.72 34.2301 380.36C32.9701 365.99 37.8 350.48 42.87 335.83C59.34 288.2 79.34 241.64 102.49 197.01" fill="black"/>
<path d="M90.33 202.04C77.62 225.45 66.1 249.5 55.8 274.06C45.47 298.68 36.38 323.82 28.59 349.35C26.48 356.26 23.75 363.72 24.64 371.06C25.25 376.07 28.42 382.01 34.23 381.7C34.91 381.66 35.64 381.11 35.58 380.35C34.53 367.76 37.88 355.28 41.74 343.42C45.6 331.56 50.16 319.13 54.72 307.12C63.8 283.21 73.76 259.63 84.57 236.45C90.66 223.39 97.03 210.47 103.66 197.68C104.46 196.14 102.13 194.77 101.33 196.32C89.44 219.25 78.41 242.61 68.26 266.36C58.11 290.11 48.77 314.18 40.49 338.62C35.97 351.96 31.69 366.11 32.88 380.35L34.23 379C29.04 379.27 27.24 372.85 27.19 368.74C27.1 362.28 29.4 355.94 31.26 349.84C35.02 337.53 39.08 325.31 43.44 313.2C52.13 289.05 61.98 265.33 72.97 242.14C79.18 229.04 85.75 216.12 92.66 203.38C93.49 201.85 91.16 200.49 90.33 202.02V202.04Z" fill="black"/>
<path d="M76.8201 198.6C82.1501 188.46 90.1801 180.6 97.6901 179.21C105.2 177.82 111.79 183.52 113 193.61C113.71 199.58 112.63 206.46 111.56 213.14" fill="black"/>
<path d="M77.61 199.07C79.99 194.59 82.9 190.37 86.53 186.81C89.47 183.92 93 181.3 97.06 180.29C100.52 179.43 104.14 180.2 106.84 182.56C110 185.33 111.58 189.52 112.07 193.61C112.85 200.03 111.68 206.58 110.66 212.9C110.47 214.06 112.24 214.55 112.43 213.39C114.02 203.47 116.76 190.24 108.98 182.08C106.37 179.34 102.65 177.8 98.86 178.14C94.58 178.52 90.71 180.8 87.46 183.49C82.67 187.46 78.92 192.67 76.01 198.14C75.46 199.18 77.04 200.11 77.59 199.07H77.61Z" fill="black"/>
<path d="M76.74 198.82C78.11 203.84 80.89 208.57 84.1 211.01C85.6 212.15 87.25 212.96 88.95 213.59C95.77 216.13 103.53 215.96 111.42 213.09" fill="black"/>
<path d="M75.86 199.06C76.84 202.57 78.4001 205.96 80.6601 208.83C82.7701 211.51 85.5201 213.29 88.7101 214.47C96.1401 217.23 104.3 216.6 111.67 213.97C112.77 213.58 112.3 211.8 111.18 212.2C104.36 214.63 96.9501 215.33 90.0001 212.98C86.9401 211.95 84.2401 210.35 82.2001 207.82C80.0201 205.13 78.5601 201.87 77.6301 198.56C77.3101 197.42 75.54 197.91 75.86 199.05V199.06Z" fill="black"/>
<path d="M77.79 198.34C84.31 202.26 91.46 204.61 98.59 206.95C100.67 207.63 102.75 208.31 104.83 209" fill="black"/>
<path d="M77.33 199.14C85.76 204.16 95.33 206.85 104.58 209.89C105.7 210.26 106.19 208.49 105.07 208.12C95.9601 205.13 86.5501 202.49 78.2601 197.55C77.2401 196.94 76.32 198.53 77.33 199.13V199.14Z" fill="black"/>
<path d="M101.1 209.71C103.42 210.5 105.75 211.28 108.07 212.07Z" fill="black"/>
<path d="M100.85 210.6C103.17 211.39 105.5 212.17 107.82 212.96C108.29 213.12 108.82 212.78 108.95 212.32C109.09 211.82 108.78 211.35 108.31 211.19C105.99 210.4 103.66 209.62 101.34 208.83C100.87 208.67 100.34 209.01 100.21 209.47C100.07 209.97 100.38 210.44 100.85 210.6Z" fill="black"/>
</g>
<defs>
<clipPath id="clip0_108_1094">
<rect width="115" height="439" fill="black"/>
</clipPath>
</defs>
</svg>
